<?xml version="1.0" encoding="UTF-8" standalone="no"?>
<!-- Created with Inkscape (http://www.inkscape.org/) -->

<svg
   xmlns:dc="http://purl.org/dc/elements/1.1/"
   xmlns:cc="http://creativecommons.org/ns#"
   xmlns:rdf="http://www.w3.org/1999/02/22-rdf-syntax-ns#"
   xmlns:svg="http://www.w3.org/2000/svg"
   xmlns="http://www.w3.org/2000/svg"
   xmlns:sodipodi="http://sodipodi.sourceforge.net/DTD/sodipodi-0.dtd"
   xmlns:inkscape="http://www.inkscape.org/namespaces/inkscape"
   width="2490"
   height="1620"
   id="svg10784"
   version="1.1"
   inkscape:version="0.48.5 r10040"
   inkscape:export-filename="/Users/tangiblex/tesis/pages/img/estr/e7.png"
   inkscape:export-xdpi="90"
   inkscape:export-ydpi="90"
   sodipodi:docname="New document 42">
  <defs
     id="defs10786" />
  <sodipodi:namedview
     inkscape:document-units="mm"
     pagecolor="#ffffff"
     bordercolor="#666666"
     borderopacity="1.0"
     inkscape:pageopacity="0.0"
     inkscape:pageshadow="2"
     inkscape:zoom="0.27709666"
     inkscape:cx="1340.643"
     inkscape:cy="758.46451"
     inkscape:current-layer="g11672"
     id="namedview10788"
     showgrid="false"
     units="mm"
     fit-margin-top="0"
     fit-margin-left="0"
     fit-margin-right="0"
     fit-margin-bottom="0"
     inkscape:window-width="1280"
     inkscape:window-height="752"
     inkscape:window-x="14"
     inkscape:window-y="0"
     inkscape:window-maximized="0" />
  <metadata
     id="metadata10790">
    <rdf:RDF>
      <cc:Work
         rdf:about="">
        <dc:format>image/svg+xml</dc:format>
        <dc:type
           rdf:resource="http://purl.org/dc/dcmitype/StillImage" />
        <dc:title></dc:title>
      </cc:Work>
    </rdf:RDF>
  </metadata>
  <g
     inkscape:label="bk"
     inkscape:groupmode="layer"
     id="layer1"
     transform="translate(-50,1195.9055)"
     style="display:none"
     sodipodi:insensitive="true">
    <rect
       style="fill:#000000;fill-opacity:1;stroke:none"
       id="rect10793"
       width="2490"
       height="1620"
       x="50"
       y="164.72437"
       transform="translate(0,-1360.6299)" />
  </g>
  <g
     inkscape:groupmode="layer"
     id="layer11"
     inkscape:label="e1"
     transform="translate(-50,-164.72434)"
     style="display:none"
     sodipodi:insensitive="true">
    <path
       sodipodi:type="arc"
       style="fill:#5599ff;fill-opacity:1;stroke:none"
       id="path11304"
       sodipodi:cx="367.5"
       sodipodi:cy="457.5"
       sodipodi:rx="72.5"
       sodipodi:ry="67.5"
       d="m 440,457.5 a 72.5,67.5 0 1 1 -145,0 72.5,67.5 0 1 1 145,0 z"
       transform="matrix(0.6266708,0,0,-0.59901678,145.69672,861.99045)" />
    <text
       xml:space="preserve"
       style="font-size:72px;font-style:normal;font-weight:normal;line-height:125%;letter-spacing:0px;word-spacing:0px;fill:#d5e5ff;fill-opacity:1;stroke:none;font-family:Sans"
       x="212.39821"
       y="492.75635"
       id="text11326"
       sodipodi:linespacing="125%"><tspan
         sodipodi:role="line"
         id="tspan11328"
         x="212.39821"
         y="492.75635"
         style="font-size:90px">Introducción</tspan></text>
  </g>
  <g
     transform="translate(-50,-164.72434)"
     inkscape:label="e1 copy"
     id="g11340"
     inkscape:groupmode="layer"
     sodipodi:insensitive="true"
     style="display:none">
    <path
       style="fill:none;stroke:#00317b;stroke-width:17.71653557;stroke-linecap:butt;stroke-linejoin:miter;stroke-miterlimit:4;stroke-opacity:1;stroke-dasharray:none;display:inline"
       d="m 371.11042,595.62718 c 0,0 147.9628,-18.04425 281.49021,83.00353 133.52742,101.04777 90.2212,151.57166 90.2212,151.57166 0,0 -43.30619,133.5274 14.43541,212.92213 57.7416,79.3946 238.18415,-39.6974 238.18415,-39.6974 0,0 207.54431,-158.14352 375.32031,-104.6566 310.4297,98.96484 202.4803,289.1696 202.0955,288.7078 0,0 41.2817,226.9482 166.0071,259.8372 151.6657,39.9928 313.9697,-104.6566 339.2317,111.8743"
       id="path11306-7"
       inkscape:connector-curvature="0"
       sodipodi:nodetypes="cscscscsc" />
    <path
       transform="matrix(0.6266708,0,0,-0.59901678,145.69672,861.99045)"
       d="m 440,457.5 a 72.5,67.5 0 1 1 -145,0 72.5,67.5 0 1 1 145,0 z"
       sodipodi:ry="67.5"
       sodipodi:rx="72.5"
       sodipodi:cy="457.5"
       sodipodi:cx="367.5"
       id="path11344"
       style="fill:#5599ff;fill-opacity:1;stroke:none"
       sodipodi:type="arc" />
    <text
       sodipodi:linespacing="125%"
       id="text11346"
       y="676.80762"
       x="735.68127"
       style="font-size:72px;font-style:normal;font-weight:normal;line-height:125%;letter-spacing:0px;word-spacing:0px;fill:#d5e5ff;fill-opacity:1;stroke:none;font-family:Sans"
       xml:space="preserve"><tspan
         style="font-size:70px"
         y="676.80762"
         x="735.68127"
         id="tspan11348"
         sodipodi:role="line">Modelo Agregación de Pares</tspan></text>
    <path
       sodipodi:type="arc"
       style="fill:#5599ff;fill-opacity:1;stroke:none"
       id="path11350"
       sodipodi:cx="367.5"
       sodipodi:cy="457.5"
       sodipodi:rx="72.5"
       sodipodi:ry="67.5"
       d="m 440,457.5 a 72.5,67.5 0 1 1 -145,0 72.5,67.5 0 1 1 145,0 z"
       transform="matrix(0.6266708,0,0,-0.59901678,531.84356,1049.6506)" />
    <path
       transform="matrix(0.6266708,0,0,-0.59901678,564.3232,1341.9674)"
       d="m 440,457.5 a 72.5,67.5 0 1 1 -145,0 72.5,67.5 0 1 1 145,0 z"
       sodipodi:ry="67.5"
       sodipodi:rx="72.5"
       sodipodi:cy="457.5"
       sodipodi:cx="367.5"
       id="path11352"
       style="fill:#0044aa;fill-opacity:1;stroke:none"
       sodipodi:type="arc" />
    <text
       xml:space="preserve"
       style="font-size:72px;font-style:normal;font-weight:normal;line-height:125%;letter-spacing:0px;word-spacing:0px;fill:#d5e5ff;fill-opacity:1;stroke:none;display:inline;font-family:Sans"
       x="294.56213"
       y="505.85117"
       id="text11326-4"
       sodipodi:linespacing="125%"><tspan
         sodipodi:role="line"
         id="tspan11328-8"
         x="294.56213"
         y="505.85117"
         style="font-size:90px">Introducción</tspan></text>
    <text
       xml:space="preserve"
       style="font-size:72px;font-style:normal;font-weight:normal;line-height:125%;letter-spacing:0px;word-spacing:0px;fill:#d5e5ff;fill-opacity:1;stroke:none;font-family:Sans"
       x="118.5681"
       y="1178.4376"
       id="text11399"
       sodipodi:linespacing="125%"><tspan
         sodipodi:role="line"
         id="tspan11401"
         x="118.5681"
         y="1178.4376"
         style="font-size:70px">Modelo Fractura con </tspan><tspan
         sodipodi:role="line"
         x="118.5681"
         y="1265.9376"
         style="font-size:70px"
         id="tspan11403">transferencia de carga jerárquica</tspan></text>
    <path
       sodipodi:type="arc"
       style="fill:#0044aa;fill-opacity:1;stroke:none"
       id="path11405"
       sodipodi:cx="367.5"
       sodipodi:cy="457.5"
       sodipodi:rx="72.5"
       sodipodi:ry="67.5"
       d="m 440,457.5 a 72.5,67.5 0 1 1 -145,0 72.5,67.5 0 1 1 145,0 z"
       transform="matrix(0.6266708,0,0,-0.59901678,1134.5213,1175.9603)" />
    <text
       xml:space="preserve"
       style="font-size:72px;font-style:normal;font-weight:normal;line-height:125%;letter-spacing:0px;word-spacing:0px;fill:#000000;fill-opacity:1;stroke:none;font-family:Sans"
       x="1486.8458"
       y="692.52582"
       id="text11407"
       sodipodi:linespacing="125%"
       transform="translate(50,164.72434)"><tspan
         sodipodi:role="line"
         id="tspan11409"
         x="1486.8458"
         y="692.52582"></tspan></text>
    <text
       xml:space="preserve"
       style="font-size:72px;font-style:normal;font-weight:normal;line-height:125%;letter-spacing:0px;word-spacing:0px;fill:#d5e5ff;fill-opacity:1;stroke:none;display:inline;font-family:Sans"
       x="1462.0692"
       y="863.7334"
       id="text11326-42"
       sodipodi:linespacing="125%"><tspan
         sodipodi:role="line"
         id="tspan11328-9"
         x="1462.0692"
         y="863.7334"
         style="font-size:90px">Modelo Minimalista</tspan></text>
    <path
       transform="matrix(0.6266708,0,0,-0.59901678,1351.0522,1515.1921)"
       d="m 440,457.5 a 72.5,67.5 0 1 1 -145,0 72.5,67.5 0 1 1 145,0 z"
       sodipodi:ry="67.5"
       sodipodi:rx="72.5"
       sodipodi:cy="457.5"
       sodipodi:cx="367.5"
       id="path11426"
       style="fill:#0044aa;fill-opacity:1;stroke:none"
       sodipodi:type="arc" />
    <text
       sodipodi:linespacing="125%"
       id="text11428"
       y="1213.7917"
       x="1653.3383"
       style="font-size:72px;font-style:normal;font-weight:normal;line-height:125%;letter-spacing:0px;word-spacing:0px;fill:#d5e5ff;fill-opacity:1;stroke:none;display:inline;font-family:Sans"
       xml:space="preserve"><tspan
         style="font-size:90px"
         y="1213.7917"
         x="1653.3383"
         id="tspan11430"
         sodipodi:role="line">Conclusiones</tspan></text>
    <path
       sodipodi:type="arc"
       style="fill:#0044aa;fill-opacity:1;stroke:none"
       id="path11432"
       sodipodi:cx="367.5"
       sodipodi:cy="457.5"
       sodipodi:rx="72.5"
       sodipodi:ry="67.5"
       d="m 440,457.5 a 72.5,67.5 0 1 1 -145,0 72.5,67.5 0 1 1 145,0 z"
       transform="matrix(0.6266708,0,0,-0.59901678,1841.8557,1825.5532)" />
    <text
       xml:space="preserve"
       style="font-size:72px;font-style:normal;font-weight:normal;line-height:125%;letter-spacing:0px;word-spacing:0px;fill:#d5e5ff;fill-opacity:1;stroke:none;display:inline;font-family:Sans"
       x="1978.1346"
       y="1686.551"
       id="text11434"
       sodipodi:linespacing="125%"><tspan
         sodipodi:role="line"
         id="tspan11436"
         x="1978.1346"
         y="1686.551"
         style="font-size:90px">..()..</tspan></text>
  </g>
  <g
     inkscape:groupmode="layer"
     id="g11438"
     inkscape:label="e1 copy copy"
     transform="translate(-50,-164.72434)"
     sodipodi:insensitive="true"
     style="display:inline">
    <path
       sodipodi:nodetypes="cscscscsc"
       inkscape:connector-curvature="0"
       id="path11440"
       d="m 371.11042,595.62718 c 0,0 147.9628,-18.04425 281.49021,83.00353 133.52742,101.04777 90.2212,151.57166 90.2212,151.57166 0,0 -43.30619,133.5274 14.43541,212.92213 57.7416,79.3946 238.18415,-39.6974 238.18415,-39.6974 0,0 207.54431,-158.14352 375.32031,-104.6566 310.4297,98.96484 202.4803,289.1696 202.0955,288.7078 0,0 41.2817,226.9482 166.0071,259.8372 151.6657,39.9928 313.9697,-104.6566 339.2317,111.8743"
       style="fill:none;stroke:#00317b;stroke-width:17.71653557;stroke-linecap:butt;stroke-linejoin:miter;stroke-miterlimit:4;stroke-opacity:1;stroke-dasharray:none;display:inline" />
    <path
       sodipodi:type="arc"
       style="fill:#5599ff;fill-opacity:1;stroke:none"
       id="path11442"
       sodipodi:cx="367.5"
       sodipodi:cy="457.5"
       sodipodi:rx="72.5"
       sodipodi:ry="67.5"
       d="m 440,457.5 a 72.5,67.5 0 1 1 -145,0 72.5,67.5 0 1 1 145,0 z"
       transform="matrix(0.6266708,0,0,-0.59901678,145.69672,861.99045)" />
    <text
       xml:space="preserve"
       style="font-size:72px;font-style:normal;font-weight:normal;line-height:125%;letter-spacing:0px;word-spacing:0px;fill:#d5e5ff;fill-opacity:1;stroke:none;font-family:Sans"
       x="735.68127"
       y="676.80762"
       id="text11444"
       sodipodi:linespacing="125%"><tspan
         sodipodi:role="line"
         id="tspan11446"
         x="735.68127"
         y="676.80762"
         style="font-size:70px">Modelo Agregación de Pares</tspan></text>
    <path
       transform="matrix(0.6266708,0,0,-0.59901678,531.84356,1049.6506)"
       d="m 440,457.5 a 72.5,67.5 0 1 1 -145,0 72.5,67.5 0 1 1 145,0 z"
       sodipodi:ry="67.5"
       sodipodi:rx="72.5"
       sodipodi:cy="457.5"
       sodipodi:cx="367.5"
       id="path11448"
       style="fill:#5599ff;fill-opacity:1;stroke:none"
       sodipodi:type="arc" />
    <path
       sodipodi:type="arc"
       style="fill:#5599ff;fill-opacity:1;stroke:none"
       id="path11450"
       sodipodi:cx="367.5"
       sodipodi:cy="457.5"
       sodipodi:rx="72.5"
       sodipodi:ry="67.5"
       d="m 440,457.5 a 72.5,67.5 0 1 1 -145,0 72.5,67.5 0 1 1 145,0 z"
       transform="matrix(0.6266708,0,0,-0.59901678,564.3232,1341.9674)" />
    <text
       sodipodi:linespacing="125%"
       id="text11452"
       y="505.85117"
       x="294.56213"
       style="font-size:72px;font-style:normal;font-weight:normal;line-height:125%;letter-spacing:0px;word-spacing:0px;fill:#d5e5ff;fill-opacity:1;stroke:none;display:inline;font-family:Sans"
       xml:space="preserve"><tspan
         style="font-size:90px"
         y="505.85117"
         x="294.56213"
         id="tspan11454"
         sodipodi:role="line">Introducción</tspan></text>
    <text
       sodipodi:linespacing="125%"
       id="text11456"
       y="1178.4376"
       x="118.5681"
       style="font-size:72px;font-style:normal;font-weight:normal;line-height:125%;letter-spacing:0px;word-spacing:0px;fill:#d5e5ff;fill-opacity:1;stroke:none;font-family:Sans"
       xml:space="preserve"><tspan
         style="font-size:70px"
         y="1178.4376"
         x="118.5681"
         id="tspan11458"
         sodipodi:role="line">Modelo Fractura con </tspan><tspan
         id="tspan11460"
         style="font-size:70px"
         y="1265.9376"
         x="118.5681"
         sodipodi:role="line">transferencia de carga jerárquica</tspan></text>
    <path
       transform="matrix(0.6266708,0,0,-0.59901678,1134.5213,1175.9603)"
       d="m 440,457.5 a 72.5,67.5 0 1 1 -145,0 72.5,67.5 0 1 1 145,0 z"
       sodipodi:ry="67.5"
       sodipodi:rx="72.5"
       sodipodi:cy="457.5"
       sodipodi:cx="367.5"
       id="path11462"
       style="fill:#5599ff;fill-opacity:1;stroke:none"
       sodipodi:type="arc" />
    <text
       transform="translate(50,164.72434)"
       sodipodi:linespacing="125%"
       id="text11464"
       y="692.52582"
       x="1486.8458"
       style="font-size:72px;font-style:normal;font-weight:normal;line-height:125%;letter-spacing:0px;word-spacing:0px;fill:#000000;fill-opacity:1;stroke:none;font-family:Sans"
       xml:space="preserve"><tspan
         y="692.52582"
         x="1486.8458"
         id="tspan11466"
         sodipodi:role="line"></tspan></text>
    <text
       sodipodi:linespacing="125%"
       id="text11468"
       y="863.7334"
       x="1462.0692"
       style="font-size:72px;font-style:normal;font-weight:normal;line-height:125%;letter-spacing:0px;word-spacing:0px;fill:#d5e5ff;fill-opacity:1;stroke:none;display:inline;font-family:Sans"
       xml:space="preserve"><tspan
         style="font-size:90px"
         y="863.7334"
         x="1462.0692"
         id="tspan11470"
         sodipodi:role="line">Modelo Minimalista</tspan></text>
    <path
       sodipodi:type="arc"
       style="fill:#5599ff;fill-opacity:1;stroke:none"
       id="path11472"
       sodipodi:cx="367.5"
       sodipodi:cy="457.5"
       sodipodi:rx="72.5"
       sodipodi:ry="67.5"
       d="m 440,457.5 a 72.5,67.5 0 1 1 -145,0 72.5,67.5 0 1 1 145,0 z"
       transform="matrix(0.6266708,0,0,-0.59901678,1351.0522,1515.1921)" />
    <text
       xml:space="preserve"
       style="font-size:72px;font-style:normal;font-weight:normal;line-height:125%;letter-spacing:0px;word-spacing:0px;fill:#d5e5ff;fill-opacity:1;stroke:none;display:inline;font-family:Sans"
       x="1653.3383"
       y="1213.7917"
       id="text11474"
       sodipodi:linespacing="125%"><tspan
         sodipodi:role="line"
         id="tspan11476"
         x="1653.3383"
         y="1213.7917"
         style="font-size:90px">Conclusiones</tspan></text>
    <path
       transform="matrix(0.6266708,0,0,-0.59901678,1841.8557,1825.5532)"
       d="m 440,457.5 a 72.5,67.5 0 1 1 -145,0 72.5,67.5 0 1 1 145,0 z"
       sodipodi:ry="67.5"
       sodipodi:rx="72.5"
       sodipodi:cy="457.5"
       sodipodi:cx="367.5"
       id="path11478"
       style="fill:#5599ff;fill-opacity:1;stroke:none"
       sodipodi:type="arc" />
    <text
       sodipodi:linespacing="125%"
       id="text11480"
       y="1686.551"
       x="1978.1346"
       style="font-size:72px;font-style:normal;font-weight:normal;line-height:125%;letter-spacing:0px;word-spacing:0px;fill:#d5e5ff;fill-opacity:1;stroke:none;display:inline;font-family:Sans"
       xml:space="preserve"><tspan
         style="font-size:90px"
         y="1686.551"
         x="1978.1346"
         id="tspan11482"
         sodipodi:role="line">..()..</tspan></text>
  </g>
  <g
     transform="translate(-50,-164.72434)"
     inkscape:label="e1 copy copy copy"
     id="g11484"
     inkscape:groupmode="layer"
     sodipodi:insensitive="true"
     style="display:none">
    <path
       style="fill:none;stroke:#00317b;stroke-width:17.71653557;stroke-linecap:butt;stroke-linejoin:miter;stroke-miterlimit:4;stroke-opacity:1;stroke-dasharray:none;display:inline"
       d="m 371.11042,595.62718 c 0,0 147.9628,-18.04425 281.49021,83.00353 133.52742,101.04777 90.2212,151.57166 90.2212,151.57166 0,0 -43.30619,133.5274 14.43541,212.92213 57.7416,79.3946 238.18415,-39.6974 238.18415,-39.6974 0,0 207.54431,-158.14352 375.32031,-104.6566 310.4297,98.96484 202.4803,289.1696 202.0955,288.7078 0,0 41.2817,226.9482 166.0071,259.8372 151.6657,39.9928 313.9697,-104.6566 339.2317,111.8743"
       id="path11486"
       inkscape:connector-curvature="0"
       sodipodi:nodetypes="cscscscsc" />
    <path
       transform="matrix(0.6266708,0,0,-0.59901678,145.69672,861.99045)"
       d="m 440,457.5 a 72.5,67.5 0 1 1 -145,0 72.5,67.5 0 1 1 145,0 z"
       sodipodi:ry="67.5"
       sodipodi:rx="72.5"
       sodipodi:cy="457.5"
       sodipodi:cx="367.5"
       id="path11488"
       style="fill:#5599ff;fill-opacity:1;stroke:none"
       sodipodi:type="arc" />
    <text
       sodipodi:linespacing="125%"
       id="text11490"
       y="676.80762"
       x="735.68127"
       style="font-size:72px;font-style:normal;font-weight:normal;line-height:125%;letter-spacing:0px;word-spacing:0px;fill:#d5e5ff;fill-opacity:1;stroke:none;font-family:Sans"
       xml:space="preserve"><tspan
         style="font-size:70px"
         y="676.80762"
         x="735.68127"
         id="tspan11492"
         sodipodi:role="line">Modelo Agregación de Pares</tspan></text>
    <path
       sodipodi:type="arc"
       style="fill:#5599ff;fill-opacity:1;stroke:none"
       id="path11494"
       sodipodi:cx="367.5"
       sodipodi:cy="457.5"
       sodipodi:rx="72.5"
       sodipodi:ry="67.5"
       d="m 440,457.5 a 72.5,67.5 0 1 1 -145,0 72.5,67.5 0 1 1 145,0 z"
       transform="matrix(0.6266708,0,0,-0.59901678,531.84356,1049.6506)" />
    <path
       transform="matrix(0.6266708,0,0,-0.59901678,564.3232,1341.9674)"
       d="m 440,457.5 a 72.5,67.5 0 1 1 -145,0 72.5,67.5 0 1 1 145,0 z"
       sodipodi:ry="67.5"
       sodipodi:rx="72.5"
       sodipodi:cy="457.5"
       sodipodi:cx="367.5"
       id="path11496"
       style="fill:#5599ff;fill-opacity:1;stroke:none"
       sodipodi:type="arc" />
    <text
       xml:space="preserve"
       style="font-size:72px;font-style:normal;font-weight:normal;line-height:125%;letter-spacing:0px;word-spacing:0px;fill:#d5e5ff;fill-opacity:1;stroke:none;display:inline;font-family:Sans"
       x="294.56213"
       y="505.85117"
       id="text11498"
       sodipodi:linespacing="125%"><tspan
         sodipodi:role="line"
         id="tspan11500"
         x="294.56213"
         y="505.85117"
         style="font-size:90px">Introducción</tspan></text>
    <text
       xml:space="preserve"
       style="font-size:72px;font-style:normal;font-weight:normal;line-height:125%;letter-spacing:0px;word-spacing:0px;fill:#d5e5ff;fill-opacity:1;stroke:none;font-family:Sans"
       x="118.5681"
       y="1178.4376"
       id="text11502"
       sodipodi:linespacing="125%"><tspan
         sodipodi:role="line"
         id="tspan11504"
         x="118.5681"
         y="1178.4376"
         style="font-size:70px">Modelo Fractura con </tspan><tspan
         sodipodi:role="line"
         x="118.5681"
         y="1265.9376"
         style="font-size:70px"
         id="tspan11506">transferencia de carga jerárquica</tspan></text>
    <path
       sodipodi:type="arc"
       style="fill:#5599ff;fill-opacity:1;stroke:none"
       id="path11508"
       sodipodi:cx="367.5"
       sodipodi:cy="457.5"
       sodipodi:rx="72.5"
       sodipodi:ry="67.5"
       d="m 440,457.5 a 72.5,67.5 0 1 1 -145,0 72.5,67.5 0 1 1 145,0 z"
       transform="matrix(0.6266708,0,0,-0.59901678,1134.5213,1175.9603)" />
    <text
       xml:space="preserve"
       style="font-size:72px;font-style:normal;font-weight:normal;line-height:125%;letter-spacing:0px;word-spacing:0px;fill:#000000;fill-opacity:1;stroke:none;font-family:Sans"
       x="1486.8458"
       y="692.52582"
       id="text11510"
       sodipodi:linespacing="125%"
       transform="translate(50,164.72434)"><tspan
         sodipodi:role="line"
         id="tspan11512"
         x="1486.8458"
         y="692.52582"></tspan></text>
    <text
       xml:space="preserve"
       style="font-size:72px;font-style:normal;font-weight:normal;line-height:125%;letter-spacing:0px;word-spacing:0px;fill:#d5e5ff;fill-opacity:1;stroke:none;display:inline;font-family:Sans"
       x="1462.0692"
       y="863.7334"
       id="text11514"
       sodipodi:linespacing="125%"><tspan
         sodipodi:role="line"
         id="tspan11516"
         x="1462.0692"
         y="863.7334"
         style="font-size:90px">Modelo Minimalista</tspan></text>
    <path
       transform="matrix(0.6266708,0,0,-0.59901678,1351.0522,1515.1921)"
       d="m 440,457.5 a 72.5,67.5 0 1 1 -145,0 72.5,67.5 0 1 1 145,0 z"
       sodipodi:ry="67.5"
       sodipodi:rx="72.5"
       sodipodi:cy="457.5"
       sodipodi:cx="367.5"
       id="path11518"
       style="fill:#5599ff;fill-opacity:1;stroke:none"
       sodipodi:type="arc" />
    <text
       sodipodi:linespacing="125%"
       id="text11520"
       y="1213.7917"
       x="1653.3383"
       style="font-size:72px;font-style:normal;font-weight:normal;line-height:125%;letter-spacing:0px;word-spacing:0px;fill:#d5e5ff;fill-opacity:1;stroke:none;display:inline;font-family:Sans"
       xml:space="preserve"><tspan
         style="font-size:90px"
         y="1213.7917"
         x="1653.3383"
         id="tspan11522"
         sodipodi:role="line">Conclusiones</tspan></text>
    <path
       sodipodi:type="arc"
       style="fill:#0055d4;fill-opacity:1;stroke:none"
       id="path11524"
       sodipodi:cx="367.5"
       sodipodi:cy="457.5"
       sodipodi:rx="72.5"
       sodipodi:ry="67.5"
       d="m 440,457.5 a 72.5,67.5 0 1 1 -145,0 72.5,67.5 0 1 1 145,0 z"
       transform="matrix(0.6266708,0,0,-0.59901678,1841.8557,1825.5532)" />
  </g>
  <g
     inkscape:groupmode="layer"
     id="g11530"
     inkscape:label="e1 copy copy copy copy"
     transform="translate(-50,-164.72434)"
     sodipodi:insensitive="true"
     style="display:none">
    <path
       sodipodi:nodetypes="cscscscsc"
       inkscape:connector-curvature="0"
       id="path11532"
       d="m 371.11042,595.62718 c 0,0 147.9628,-18.04425 281.49021,83.00353 133.52742,101.04777 90.2212,151.57166 90.2212,151.57166 0,0 -43.30619,133.5274 14.43541,212.92213 57.7416,79.3946 238.18415,-39.6974 238.18415,-39.6974 0,0 207.54431,-158.14352 375.32031,-104.6566 310.4297,98.96484 202.4803,289.1696 202.0955,288.7078 0,0 41.2817,226.9482 166.0071,259.8372 151.6657,39.9928 313.9697,-104.6566 339.2317,111.8743"
       style="fill:none;stroke:#00317b;stroke-width:17.71653557;stroke-linecap:butt;stroke-linejoin:miter;stroke-miterlimit:4;stroke-opacity:1;stroke-dasharray:none;display:inline" />
    <path
       sodipodi:type="arc"
       style="fill:#5599ff;fill-opacity:1;stroke:none"
       id="path11534"
       sodipodi:cx="367.5"
       sodipodi:cy="457.5"
       sodipodi:rx="72.5"
       sodipodi:ry="67.5"
       d="m 440,457.5 a 72.5,67.5 0 1 1 -145,0 72.5,67.5 0 1 1 145,0 z"
       transform="matrix(0.6266708,0,0,-0.59901678,145.69672,861.99045)" />
    <text
       xml:space="preserve"
       style="font-size:72px;font-style:normal;font-weight:normal;line-height:125%;letter-spacing:0px;word-spacing:0px;fill:#d5e5ff;fill-opacity:1;stroke:none;font-family:Sans"
       x="735.68127"
       y="676.80762"
       id="text11536"
       sodipodi:linespacing="125%"><tspan
         sodipodi:role="line"
         id="tspan11538"
         x="735.68127"
         y="676.80762"
         style="font-size:70px">Modelo Agregación de Pares</tspan></text>
    <path
       transform="matrix(0.6266708,0,0,-0.59901678,531.84356,1049.6506)"
       d="m 440,457.5 a 72.5,67.5 0 1 1 -145,0 72.5,67.5 0 1 1 145,0 z"
       sodipodi:ry="67.5"
       sodipodi:rx="72.5"
       sodipodi:cy="457.5"
       sodipodi:cx="367.5"
       id="path11540"
       style="fill:#5599ff;fill-opacity:1;stroke:none"
       sodipodi:type="arc" />
    <path
       sodipodi:type="arc"
       style="fill:#5599ff;fill-opacity:1;stroke:none"
       id="path11542"
       sodipodi:cx="367.5"
       sodipodi:cy="457.5"
       sodipodi:rx="72.5"
       sodipodi:ry="67.5"
       d="m 440,457.5 a 72.5,67.5 0 1 1 -145,0 72.5,67.5 0 1 1 145,0 z"
       transform="matrix(0.6266708,0,0,-0.59901678,564.3232,1341.9674)" />
    <text
       sodipodi:linespacing="125%"
       id="text11544"
       y="505.85117"
       x="294.56213"
       style="font-size:72px;font-style:normal;font-weight:normal;line-height:125%;letter-spacing:0px;word-spacing:0px;fill:#d5e5ff;fill-opacity:1;stroke:none;display:inline;font-family:Sans"
       xml:space="preserve"><tspan
         style="font-size:90px"
         y="505.85117"
         x="294.56213"
         id="tspan11546"
         sodipodi:role="line">Introducción</tspan></text>
    <text
       sodipodi:linespacing="125%"
       id="text11548"
       y="1178.4376"
       x="118.5681"
       style="font-size:72px;font-style:normal;font-weight:normal;line-height:125%;letter-spacing:0px;word-spacing:0px;fill:#d5e5ff;fill-opacity:1;stroke:none;font-family:Sans"
       xml:space="preserve"><tspan
         style="font-size:70px"
         y="1178.4376"
         x="118.5681"
         id="tspan11550"
         sodipodi:role="line">Modelo Fractura con </tspan><tspan
         id="tspan11552"
         style="font-size:70px"
         y="1265.9376"
         x="118.5681"
         sodipodi:role="line">transferencia de carga jerárquica</tspan></text>
    <path
       transform="matrix(0.6266708,0,0,-0.59901678,1134.5213,1175.9603)"
       d="m 440,457.5 a 72.5,67.5 0 1 1 -145,0 72.5,67.5 0 1 1 145,0 z"
       sodipodi:ry="67.5"
       sodipodi:rx="72.5"
       sodipodi:cy="457.5"
       sodipodi:cx="367.5"
       id="path11554"
       style="fill:#5599ff;fill-opacity:1;stroke:none"
       sodipodi:type="arc" />
    <text
       transform="translate(50,164.72434)"
       sodipodi:linespacing="125%"
       id="text11556"
       y="692.52582"
       x="1486.8458"
       style="font-size:72px;font-style:normal;font-weight:normal;line-height:125%;letter-spacing:0px;word-spacing:0px;fill:#000000;fill-opacity:1;stroke:none;font-family:Sans"
       xml:space="preserve"><tspan
         y="692.52582"
         x="1486.8458"
         id="tspan11558"
         sodipodi:role="line"></tspan></text>
    <text
       sodipodi:linespacing="125%"
       id="text11560"
       y="863.7334"
       x="1462.0692"
       style="font-size:72px;font-style:normal;font-weight:normal;line-height:125%;letter-spacing:0px;word-spacing:0px;fill:#d5e5ff;fill-opacity:1;stroke:none;display:inline;font-family:Sans"
       xml:space="preserve"><tspan
         style="font-size:90px"
         y="863.7334"
         x="1462.0692"
         id="tspan11562"
         sodipodi:role="line">Modelo Minimalista</tspan></text>
    <path
       sodipodi:type="arc"
       style="fill:#0055d4;fill-opacity:1;stroke:none"
       id="path11564"
       sodipodi:cx="367.5"
       sodipodi:cy="457.5"
       sodipodi:rx="72.5"
       sodipodi:ry="67.5"
       d="m 440,457.5 a 72.5,67.5 0 1 1 -145,0 72.5,67.5 0 1 1 145,0 z"
       transform="matrix(0.6266708,0,0,-0.59901678,1351.0522,1515.1921)" />
    <path
       transform="matrix(0.6266708,0,0,-0.59901678,1841.8557,1825.5532)"
       d="m 440,457.5 a 72.5,67.5 0 1 1 -145,0 72.5,67.5 0 1 1 145,0 z"
       sodipodi:ry="67.5"
       sodipodi:rx="72.5"
       sodipodi:cy="457.5"
       sodipodi:cx="367.5"
       id="path11570"
       style="fill:#0055d4;fill-opacity:1;stroke:none"
       sodipodi:type="arc" />
  </g>
  <g
     transform="translate(-50,-164.72434)"
     inkscape:label="e1 copy copy copy copy copy"
     id="g11572"
     inkscape:groupmode="layer"
     sodipodi:insensitive="true"
     style="display:none">
    <path
       style="fill:none;stroke:#00317b;stroke-width:17.71653557;stroke-linecap:butt;stroke-linejoin:miter;stroke-miterlimit:4;stroke-opacity:1;stroke-dasharray:none;display:inline"
       d="m 371.11042,595.62718 c 0,0 147.9628,-18.04425 281.49021,83.00353 133.52742,101.04777 90.2212,151.57166 90.2212,151.57166 0,0 -43.30619,133.5274 14.43541,212.92213 57.7416,79.3946 238.18415,-39.6974 238.18415,-39.6974 0,0 207.54431,-158.14352 375.32031,-104.6566 310.4297,98.96484 202.4803,289.1696 202.0955,288.7078 0,0 41.2817,226.9482 166.0071,259.8372 151.6657,39.9928 313.9697,-104.6566 339.2317,111.8743"
       id="path11574"
       inkscape:connector-curvature="0"
       sodipodi:nodetypes="cscscscsc" />
    <path
       transform="matrix(0.6266708,0,0,-0.59901678,145.69672,861.99045)"
       d="m 440,457.5 a 72.5,67.5 0 1 1 -145,0 72.5,67.5 0 1 1 145,0 z"
       sodipodi:ry="67.5"
       sodipodi:rx="72.5"
       sodipodi:cy="457.5"
       sodipodi:cx="367.5"
       id="path11576"
       style="fill:#5599ff;fill-opacity:1;stroke:none"
       sodipodi:type="arc" />
    <text
       sodipodi:linespacing="125%"
       id="text11578"
       y="676.80762"
       x="735.68127"
       style="font-size:72px;font-style:normal;font-weight:normal;line-height:125%;letter-spacing:0px;word-spacing:0px;fill:#d5e5ff;fill-opacity:1;stroke:none;font-family:Sans"
       xml:space="preserve"><tspan
         style="font-size:70px"
         y="676.80762"
         x="735.68127"
         id="tspan11580"
         sodipodi:role="line">Modelo Agregación de Pares</tspan></text>
    <path
       sodipodi:type="arc"
       style="fill:#5599ff;fill-opacity:1;stroke:none"
       id="path11582"
       sodipodi:cx="367.5"
       sodipodi:cy="457.5"
       sodipodi:rx="72.5"
       sodipodi:ry="67.5"
       d="m 440,457.5 a 72.5,67.5 0 1 1 -145,0 72.5,67.5 0 1 1 145,0 z"
       transform="matrix(0.6266708,0,0,-0.59901678,531.84356,1049.6506)" />
    <path
       transform="matrix(0.6266708,0,0,-0.59901678,564.3232,1341.9674)"
       d="m 440,457.5 a 72.5,67.5 0 1 1 -145,0 72.5,67.5 0 1 1 145,0 z"
       sodipodi:ry="67.5"
       sodipodi:rx="72.5"
       sodipodi:cy="457.5"
       sodipodi:cx="367.5"
       id="path11584"
       style="fill:#5599ff;fill-opacity:1;stroke:none"
       sodipodi:type="arc" />
    <text
       xml:space="preserve"
       style="font-size:72px;font-style:normal;font-weight:normal;line-height:125%;letter-spacing:0px;word-spacing:0px;fill:#d5e5ff;fill-opacity:1;stroke:none;display:inline;font-family:Sans"
       x="294.56213"
       y="505.85117"
       id="text11586"
       sodipodi:linespacing="125%"><tspan
         sodipodi:role="line"
         id="tspan11588"
         x="294.56213"
         y="505.85117"
         style="font-size:90px">Introducción</tspan></text>
    <text
       xml:space="preserve"
       style="font-size:72px;font-style:normal;font-weight:normal;line-height:125%;letter-spacing:0px;word-spacing:0px;fill:#d5e5ff;fill-opacity:1;stroke:none;font-family:Sans"
       x="118.5681"
       y="1178.4376"
       id="text11590"
       sodipodi:linespacing="125%"><tspan
         sodipodi:role="line"
         id="tspan11592"
         x="118.5681"
         y="1178.4376"
         style="font-size:70px">Modelo Fractura con </tspan><tspan
         sodipodi:role="line"
         x="118.5681"
         y="1265.9376"
         style="font-size:70px"
         id="tspan11594">transferencia de carga jerárquica</tspan></text>
    <path
       sodipodi:type="arc"
       style="fill:#0044aa;fill-opacity:1;stroke:none"
       id="path11596"
       sodipodi:cx="367.5"
       sodipodi:cy="457.5"
       sodipodi:rx="72.5"
       sodipodi:ry="67.5"
       d="m 440,457.5 a 72.5,67.5 0 1 1 -145,0 72.5,67.5 0 1 1 145,0 z"
       transform="matrix(0.6266708,0,0,-0.59901678,1134.5213,1175.9603)" />
    <text
       xml:space="preserve"
       style="font-size:72px;font-style:normal;font-weight:normal;line-height:125%;letter-spacing:0px;word-spacing:0px;fill:#000000;fill-opacity:1;stroke:none;font-family:Sans"
       x="1486.8458"
       y="692.52582"
       id="text11598"
       sodipodi:linespacing="125%"
       transform="translate(50,164.72434)"><tspan
         sodipodi:role="line"
         id="tspan11600"
         x="1486.8458"
         y="692.52582"></tspan></text>
    <path
       transform="matrix(0.6266708,0,0,-0.59901678,1351.0522,1515.1921)"
       d="m 440,457.5 a 72.5,67.5 0 1 1 -145,0 72.5,67.5 0 1 1 145,0 z"
       sodipodi:ry="67.5"
       sodipodi:rx="72.5"
       sodipodi:cy="457.5"
       sodipodi:cx="367.5"
       id="path11606"
       style="fill:#0055d4;fill-opacity:1;stroke:none"
       sodipodi:type="arc" />
    <path
       sodipodi:type="arc"
       style="fill:#0055d4;fill-opacity:1;stroke:none"
       id="path11608"
       sodipodi:cx="367.5"
       sodipodi:cy="457.5"
       sodipodi:rx="72.5"
       sodipodi:ry="67.5"
       d="m 440,457.5 a 72.5,67.5 0 1 1 -145,0 72.5,67.5 0 1 1 145,0 z"
       transform="matrix(0.6266708,0,0,-0.59901678,1841.8557,1825.5532)" />
  </g>
  <g
     inkscape:groupmode="layer"
     id="g11610"
     inkscape:label="e1 copy copy copy copy copy copy"
     transform="translate(-50,-164.72434)"
     sodipodi:insensitive="true"
     style="display:none">
    <path
       sodipodi:nodetypes="cscscscsc"
       inkscape:connector-curvature="0"
       id="path11612"
       d="m 371.11042,595.62718 c 0,0 147.9628,-18.04425 281.49021,83.00353 133.52742,101.04777 90.2212,151.57166 90.2212,151.57166 0,0 -43.30619,133.5274 14.43541,212.92213 57.7416,79.3946 238.18415,-39.6974 238.18415,-39.6974 0,0 207.54431,-158.14352 375.32031,-104.6566 310.4297,98.96484 202.4803,289.1696 202.0955,288.7078 0,0 41.2817,226.9482 166.0071,259.8372 151.6657,39.9928 313.9697,-104.6566 339.2317,111.8743"
       style="fill:none;stroke:#00317b;stroke-width:17.71653557;stroke-linecap:butt;stroke-linejoin:miter;stroke-miterlimit:4;stroke-opacity:1;stroke-dasharray:none;display:inline" />
    <path
       sodipodi:type="arc"
       style="fill:#5599ff;fill-opacity:1;stroke:none"
       id="path11614"
       sodipodi:cx="367.5"
       sodipodi:cy="457.5"
       sodipodi:rx="72.5"
       sodipodi:ry="67.5"
       d="m 440,457.5 a 72.5,67.5 0 1 1 -145,0 72.5,67.5 0 1 1 145,0 z"
       transform="matrix(0.6266708,0,0,-0.59901678,145.69672,861.99045)" />
    <text
       xml:space="preserve"
       style="font-size:72px;font-style:normal;font-weight:normal;line-height:125%;letter-spacing:0px;word-spacing:0px;fill:#d5e5ff;fill-opacity:1;stroke:none;font-family:Sans"
       x="735.68127"
       y="676.80762"
       id="text11616"
       sodipodi:linespacing="125%"><tspan
         sodipodi:role="line"
         id="tspan11618"
         x="735.68127"
         y="676.80762"
         style="font-size:70px">Modelo Agregación de Pares</tspan></text>
    <path
       transform="matrix(0.6266708,0,0,-0.59901678,531.84356,1049.6506)"
       d="m 440,457.5 a 72.5,67.5 0 1 1 -145,0 72.5,67.5 0 1 1 145,0 z"
       sodipodi:ry="67.5"
       sodipodi:rx="72.5"
       sodipodi:cy="457.5"
       sodipodi:cx="367.5"
       id="path11620"
       style="fill:#5599ff;fill-opacity:1;stroke:none"
       sodipodi:type="arc" />
    <path
       sodipodi:type="arc"
       style="fill:#0044aa;fill-opacity:1;stroke:none"
       id="path11622"
       sodipodi:cx="367.5"
       sodipodi:cy="457.5"
       sodipodi:rx="72.5"
       sodipodi:ry="67.5"
       d="m 440,457.5 a 72.5,67.5 0 1 1 -145,0 72.5,67.5 0 1 1 145,0 z"
       transform="matrix(0.6266708,0,0,-0.59901678,564.3232,1341.9674)" />
    <text
       sodipodi:linespacing="125%"
       id="text11624"
       y="505.85117"
       x="294.56213"
       style="font-size:72px;font-style:normal;font-weight:normal;line-height:125%;letter-spacing:0px;word-spacing:0px;fill:#d5e5ff;fill-opacity:1;stroke:none;display:inline;font-family:Sans"
       xml:space="preserve"><tspan
         style="font-size:90px"
         y="505.85117"
         x="294.56213"
         id="tspan11626"
         sodipodi:role="line">Introducción</tspan></text>
    <path
       transform="matrix(0.6266708,0,0,-0.59901678,1134.5213,1175.9603)"
       d="m 440,457.5 a 72.5,67.5 0 1 1 -145,0 72.5,67.5 0 1 1 145,0 z"
       sodipodi:ry="67.5"
       sodipodi:rx="72.5"
       sodipodi:cy="457.5"
       sodipodi:cx="367.5"
       id="path11634"
       style="fill:#0044aa;fill-opacity:1;stroke:none"
       sodipodi:type="arc" />
    <text
       transform="translate(50,164.72434)"
       sodipodi:linespacing="125%"
       id="text11636"
       y="692.52582"
       x="1486.8458"
       style="font-size:72px;font-style:normal;font-weight:normal;line-height:125%;letter-spacing:0px;word-spacing:0px;fill:#000000;fill-opacity:1;stroke:none;font-family:Sans"
       xml:space="preserve"><tspan
         y="692.52582"
         x="1486.8458"
         id="tspan11638"
         sodipodi:role="line"></tspan></text>
    <path
       sodipodi:type="arc"
       style="fill:#0055d4;fill-opacity:1;stroke:none"
       id="path11640"
       sodipodi:cx="367.5"
       sodipodi:cy="457.5"
       sodipodi:rx="72.5"
       sodipodi:ry="67.5"
       d="m 440,457.5 a 72.5,67.5 0 1 1 -145,0 72.5,67.5 0 1 1 145,0 z"
       transform="matrix(0.6266708,0,0,-0.59901678,1351.0522,1515.1921)" />
    <path
       transform="matrix(0.6266708,0,0,-0.59901678,1841.8557,1825.5532)"
       d="m 440,457.5 a 72.5,67.5 0 1 1 -145,0 72.5,67.5 0 1 1 145,0 z"
       sodipodi:ry="67.5"
       sodipodi:rx="72.5"
       sodipodi:cy="457.5"
       sodipodi:cx="367.5"
       id="path11642"
       style="fill:#0055d4;fill-opacity:1;stroke:none"
       sodipodi:type="arc" />
  </g>
  <g
     transform="translate(-50,-164.72434)"
     inkscape:label="e1 copy copy copy copy copy copy copy"
     id="g11644"
     inkscape:groupmode="layer"
     sodipodi:insensitive="true"
     style="display:none">
    <path
       style="fill:none;stroke:#00317b;stroke-width:17.71653557;stroke-linecap:butt;stroke-linejoin:miter;stroke-miterlimit:4;stroke-opacity:1;stroke-dasharray:none;display:inline"
       d="m 371.11042,595.62718 c 0,0 147.9628,-18.04425 281.49021,83.00353 133.52742,101.04777 90.2212,151.57166 90.2212,151.57166 0,0 -43.30619,133.5274 14.43541,212.92213 57.7416,79.3946 238.18415,-39.6974 238.18415,-39.6974 0,0 207.54431,-158.14352 375.32031,-104.6566 310.4297,98.96484 202.4803,289.1696 202.0955,288.7078 0,0 41.2817,226.9482 166.0071,259.8372 151.6657,39.9928 313.9697,-104.6566 339.2317,111.8743"
       id="path11646"
       inkscape:connector-curvature="0"
       sodipodi:nodetypes="cscscscsc" />
    <path
       transform="matrix(0.6266708,0,0,-0.59901678,145.69672,861.99045)"
       d="m 440,457.5 a 72.5,67.5 0 1 1 -145,0 72.5,67.5 0 1 1 145,0 z"
       sodipodi:ry="67.5"
       sodipodi:rx="72.5"
       sodipodi:cy="457.5"
       sodipodi:cx="367.5"
       id="path11648"
       style="fill:#5599ff;fill-opacity:1;stroke:none"
       sodipodi:type="arc" />
    <path
       sodipodi:type="arc"
       style="fill:#0055d4;fill-opacity:1;stroke:none"
       id="path11654"
       sodipodi:cx="367.5"
       sodipodi:cy="457.5"
       sodipodi:rx="72.5"
       sodipodi:ry="67.5"
       d="m 440,457.5 a 72.5,67.5 0 1 1 -145,0 72.5,67.5 0 1 1 145,0 z"
       transform="matrix(0.6266708,0,0,-0.59901678,531.84356,1049.6506)" />
    <path
       transform="matrix(0.6266708,0,0,-0.59901678,564.3232,1341.9674)"
       d="m 440,457.5 a 72.5,67.5 0 1 1 -145,0 72.5,67.5 0 1 1 145,0 z"
       sodipodi:ry="67.5"
       sodipodi:rx="72.5"
       sodipodi:cy="457.5"
       sodipodi:cx="367.5"
       id="path11656"
       style="fill:#0044aa;fill-opacity:1;stroke:none"
       sodipodi:type="arc" />
    <text
       xml:space="preserve"
       style="font-size:72px;font-style:normal;font-weight:normal;line-height:125%;letter-spacing:0px;word-spacing:0px;fill:#d5e5ff;fill-opacity:1;stroke:none;display:inline;font-family:Sans"
       x="294.56213"
       y="505.85117"
       id="text11658"
       sodipodi:linespacing="125%"><tspan
         sodipodi:role="line"
         id="tspan11660"
         x="294.56213"
         y="505.85117"
         style="font-size:90px">Introducción</tspan></text>
    <path
       sodipodi:type="arc"
       style="fill:#0044aa;fill-opacity:1;stroke:none"
       id="path11662"
       sodipodi:cx="367.5"
       sodipodi:cy="457.5"
       sodipodi:rx="72.5"
       sodipodi:ry="67.5"
       d="m 440,457.5 a 72.5,67.5 0 1 1 -145,0 72.5,67.5 0 1 1 145,0 z"
       transform="matrix(0.6266708,0,0,-0.59901678,1134.5213,1175.9603)" />
    <text
       xml:space="preserve"
       style="font-size:72px;font-style:normal;font-weight:normal;line-height:125%;letter-spacing:0px;word-spacing:0px;fill:#000000;fill-opacity:1;stroke:none;font-family:Sans"
       x="1486.8458"
       y="692.52582"
       id="text11664"
       sodipodi:linespacing="125%"
       transform="translate(50,164.72434)"><tspan
         sodipodi:role="line"
         id="tspan11666"
         x="1486.8458"
         y="692.52582"></tspan></text>
    <path
       transform="matrix(0.6266708,0,0,-0.59901678,1351.0522,1515.1921)"
       d="m 440,457.5 a 72.5,67.5 0 1 1 -145,0 72.5,67.5 0 1 1 145,0 z"
       sodipodi:ry="67.5"
       sodipodi:rx="72.5"
       sodipodi:cy="457.5"
       sodipodi:cx="367.5"
       id="path11668"
       style="fill:#0055d4;fill-opacity:1;stroke:none"
       sodipodi:type="arc" />
    <path
       sodipodi:type="arc"
       style="fill:#0055d4;fill-opacity:1;stroke:none"
       id="path11670"
       sodipodi:cx="367.5"
       sodipodi:cy="457.5"
       sodipodi:rx="72.5"
       sodipodi:ry="67.5"
       d="m 440,457.5 a 72.5,67.5 0 1 1 -145,0 72.5,67.5 0 1 1 145,0 z"
       transform="matrix(0.6266708,0,0,-0.59901678,1841.8557,1825.5532)" />
  </g>
  <g
     inkscape:groupmode="layer"
     id="g11672"
     inkscape:label="e1 copy copy copy copy copy copy copy copy"
     transform="translate(-50,-164.72434)"
     sodipodi:insensitive="true"
     style="display:none">
    <path
       sodipodi:nodetypes="cscscscsc"
       inkscape:connector-curvature="0"
       id="path11674"
       d="m 371.11042,595.62718 c 0,0 147.9628,-18.04425 281.49021,83.00353 133.52742,101.04777 90.2212,151.57166 90.2212,151.57166 0,0 -43.30619,133.5274 14.43541,212.92213 57.7416,79.3946 238.18415,-39.6974 238.18415,-39.6974 0,0 207.54431,-158.14352 375.32031,-104.6566 310.4297,98.96484 202.4803,289.1696 202.0955,288.7078 0,0 41.2817,226.9482 166.0071,259.8372 151.6657,39.9928 313.9697,-104.6566 339.2317,111.8743"
       style="fill:none;stroke:#00317b;stroke-width:17.71653557;stroke-linecap:butt;stroke-linejoin:miter;stroke-miterlimit:4;stroke-opacity:1;stroke-dasharray:none;display:inline" />
    <path
       sodipodi:type="arc"
       style="fill:#0055d4;fill-opacity:1;stroke:none"
       id="path11676"
       sodipodi:cx="367.5"
       sodipodi:cy="457.5"
       sodipodi:rx="72.5"
       sodipodi:ry="67.5"
       d="m 440,457.5 a 72.5,67.5 0 1 1 -145,0 72.5,67.5 0 1 1 145,0 z"
       transform="matrix(0.6266708,0,0,-0.59901678,145.69672,861.99045)" />
    <path
       transform="matrix(0.6266708,0,0,-0.59901678,531.84356,1049.6506)"
       d="m 440,457.5 a 72.5,67.5 0 1 1 -145,0 72.5,67.5 0 1 1 145,0 z"
       sodipodi:ry="67.5"
       sodipodi:rx="72.5"
       sodipodi:cy="457.5"
       sodipodi:cx="367.5"
       id="path11678"
       style="fill:#0055d4;fill-opacity:1;stroke:none"
       sodipodi:type="arc" />
    <path
       sodipodi:type="arc"
       style="fill:#0044aa;fill-opacity:1;stroke:none"
       id="path11680"
       sodipodi:cx="367.5"
       sodipodi:cy="457.5"
       sodipodi:rx="72.5"
       sodipodi:ry="67.5"
       d="m 440,457.5 a 72.5,67.5 0 1 1 -145,0 72.5,67.5 0 1 1 145,0 z"
       transform="matrix(0.6266708,0,0,-0.59901678,564.3232,1341.9674)" />
    <path
       transform="matrix(0.6266708,0,0,-0.59901678,1134.5213,1175.9603)"
       d="m 440,457.5 a 72.5,67.5 0 1 1 -145,0 72.5,67.5 0 1 1 145,0 z"
       sodipodi:ry="67.5"
       sodipodi:rx="72.5"
       sodipodi:cy="457.5"
       sodipodi:cx="367.5"
       id="path11686"
       style="fill:#0044aa;fill-opacity:1;stroke:none"
       sodipodi:type="arc" />
    <text
       transform="translate(50,164.72434)"
       sodipodi:linespacing="125%"
       id="text11688"
       y="692.52582"
       x="1486.8458"
       style="font-size:72px;font-style:normal;font-weight:normal;line-height:125%;letter-spacing:0px;word-spacing:0px;fill:#000000;fill-opacity:1;stroke:none;font-family:Sans"
       xml:space="preserve"><tspan
         y="692.52582"
         x="1486.8458"
         id="tspan11690"
         sodipodi:role="line"></tspan></text>
    <path
       sodipodi:type="arc"
       style="fill:#0055d4;fill-opacity:1;stroke:none"
       id="path11692"
       sodipodi:cx="367.5"
       sodipodi:cy="457.5"
       sodipodi:rx="72.5"
       sodipodi:ry="67.5"
       d="m 440,457.5 a 72.5,67.5 0 1 1 -145,0 72.5,67.5 0 1 1 145,0 z"
       transform="matrix(0.6266708,0,0,-0.59901678,1351.0522,1515.1921)" />
    <path
       transform="matrix(0.6266708,0,0,-0.59901678,1841.8557,1825.5532)"
       d="m 440,457.5 a 72.5,67.5 0 1 1 -145,0 72.5,67.5 0 1 1 145,0 z"
       sodipodi:ry="67.5"
       sodipodi:rx="72.5"
       sodipodi:cy="457.5"
       sodipodi:cx="367.5"
       id="path11694"
       style="fill:#0055d4;fill-opacity:1;stroke:none"
       sodipodi:type="arc" />
  </g>
</svg>
